<svg width="20" height="20" viewBox="0 0 20 20" fill="none" xmlns="http://www.w3.org/2000/svg">
<g clip-path="url(#clip0_4351_19633)">
<path d="M15.002 5C16.4162 5 17.1232 5.00011 17.5625 5.43945C18.0017 5.8788 18.0019 6.58592 18.0019 8C18.0019 8 18.0117 8.29065 17.9229 8.39532C17.834 8.5 17.7369 8.51235 17.6126 8.54496C16.9697 8.71367 16.4932 9.29942 16.4932 9.99609C16.4933 10.6981 16.9773 11.2869 17.6278 11.4502C17.6963 11.4695 17.8018 11.4891 17.9033 11.6102C18.0049 11.7313 18.0019 12 18.0019 12C18.0019 13.4141 18.0018 14.1212 17.5625 14.5605C17.1232 14.9998 16.416 15 15.002 15H5.00195C3.58787 15 2.88075 14.9998 2.4414 14.5605C2.00209 14.1212 2.00195 13.4141 2.00195 12C2.00195 12 2.0166 11.7078 2.12598 11.5867C2.23535 11.4656 2.29788 11.4782 2.43594 11.4396C3.06551 11.2636 3.53502 10.6845 3.53515 9.99609C3.53515 9.29226 3.04453 8.7022 2.3938 8.54055C2.26834 8.50938 2.18138 8.48126 2.08142 8.37189C1.98145 8.26251 2.00195 8 2.00195 8C2.00195 6.58592 2.00218 5.8788 2.4414 5.43945C2.88074 5.00011 3.58774 5 5.00195 5H15.002Z" stroke="#333333" stroke-width="1.2" stroke-linecap="round" stroke-linejoin="round"/>
<path d="M12.2511 7.75L7.7511 12.25" stroke="#333333" stroke-width="1.2" stroke-linecap="round" stroke-linejoin="round"/>
<path d="M8.3761 9.25C8.85935 9.25 9.2511 8.85825 9.2511 8.375C9.2511 7.89175 8.85935 7.5 8.3761 7.5C7.89285 7.5 7.5011 7.89175 7.5011 8.375C7.5011 8.85825 7.89285 9.25 8.3761 9.25Z" fill="#333333"/>
<path d="M11.6261 12.5C12.1093 12.5 12.5011 12.1082 12.5011 11.625C12.5011 11.1418 12.1093 10.75 11.6261 10.75C11.1428 10.75 10.7511 11.1418 10.7511 11.625C10.7511 12.1082 11.1428 12.5 11.6261 12.5Z" fill="#333333"/>
</g>
<defs>
<clipPath id="clip0_4351_19633">
<rect width="20" height="20" fill="white"/>
</clipPath>
</defs>
</svg>
