<svg width="20" height="20" viewBox="0 0 20 20" fill="none" xmlns="http://www.w3.org/2000/svg">
<g clip-path="url(#clip0_4924_18130)">
<path d="M10 17.5C14.1421 17.5 17.5 14.1421 17.5 10C17.5 5.85786 14.1421 2.5 10 2.5C5.85786 2.5 2.5 5.85786 2.5 10C2.5 14.1421 5.85786 17.5 10 17.5Z" stroke="#333333" stroke-width="1.16667" stroke-linecap="round" stroke-linejoin="round"/>
<path d="M11.1726 4L6.31094 9.59054C5.68468 10.3107 6.05327 11.3271 6.97986 11.302L9.78524 11.3289C9.92688 11.3289 10.0412 11.4511 10.0395 11.6001C10.0395 11.6235 10.0361 11.6468 10.031 11.6702L8.90472 16L13.7271 10.4975C14.3312 9.80784 13.867 8.69081 12.9746 8.69081L10.2067 8.74469C10.0651 8.74828 9.94906 8.62975 9.94565 8.48069C9.94565 8.45376 9.94906 8.42682 9.95589 8.39988C10.2511 7.30799 11.135 4.03951 11.1726 4Z" stroke="#333333" stroke-width="1.16667" stroke-linecap="round" stroke-linejoin="round"/>
</g>
<defs>
<clipPath id="clip0_4924_18130">
<rect width="20" height="20" fill="white"/>
</clipPath>
</defs>
</svg>
